<?xml version="1.0" encoding="UTF-8" standalone="no"?>
<!-- Created with Inkscape (http://www.inkscape.org/) -->

<svg
   width="100mm"
   height="100mm"
   viewBox="0 0 100 100"
   version="1.1"
   id="svg1"
   xml:space="preserve"
   xmlns="http://www.w3.org/2000/svg"
   xmlns:svg="http://www.w3.org/2000/svg"><defs
     id="defs1" /><g
     id="layer1"
     transform="translate(81.352249,48.631912)"><path
       style="fill:#f2bb00;fill-opacity:1;stroke-width:0.428619"
       d="m -22.001933,43.78684 c -8.64881,-0.819151 -17.248554,-4.215004 -24.285577,-9.589847 -6.665004,-5.090698 -12.314805,-11.806535 -15.922647,-18.927013 -5.027924,-9.923174 -6.185878,-21.659306 -3.09191,-31.337209 1.274552,-3.986788 2.96213,-6.864702 5.532799,-9.435371 1.560191,-1.560191 2.882582,-2.548292 4.718879,-3.525985 0.658521,-0.350614 1.370674,-0.805509 1.582562,-1.010879 0.24693,-0.239335 0.754181,-1.1261 1.412801,-2.469831 0.565153,-1.153038 1.527542,-2.969086 2.138641,-4.035662 0.611098,-1.066576 1.32893,-2.336919 1.595182,-2.822984 0.525448,-0.959253 1.135063,-1.633023 1.578147,-1.74423 0.670448,-0.168272 2.747258,0.758166 4.60833,2.055717 1.800136,1.255066 2.554955,2.0712 2.554955,2.762497 0,0.275983 -0.624122,1.093992 -1.974891,2.588402 -2.574342,2.848096 -4.035596,5.401828 -4.035596,7.052728 0,0.803287 0.294634,1.787322 0.820763,2.741236 1.118123,2.027244 1.705945,3.311147 2.176335,4.753493 0.78736,2.414261 1.0143,3.510718 1.5394,7.437588 0.569998,4.262636 1.268353,6.949799 2.576638,9.914506 2.996062,6.789386 8.114207,12.253995 15.66038,16.720483 3.011248,1.782317 5.543307,2.995227 10.947361,5.244002 5.6646874,2.357233 8.2074134,3.805712 11.41447741,6.502316 0.520995,0.43807 1.305397,0.939095 2.02449999,1.293126 1.520658,0.748656 2.168683,1.414104 2.52751,2.595459 0.21845,0.719201 0.237382,0.97741 0.180397,2.460213 -0.07245,1.884924 -0.249864,2.527124 -0.926198,3.352502 -0.476968,0.582069 -1.193571,0.948988 -2.55874799,1.31013 -1.180952,0.312407 -1.472662,0.455969 -3.09754801,1.524468 -3.433644,2.257901 -7.258888,3.691292 -11.6883964,4.379873 -1.706684,0.265306 -6.185781,0.382911 -8.008546,0.210272 z m 0.189077,-11.395605 c 0.363805,-0.160552 0.856693,-0.480727 1.095307,-0.711504 0.80503,-0.778586 2.647552,-4.025164 2.913465,-5.13362 0.171418,-0.71455 0.0015,-1.427832 -0.439142,-1.843279 -0.164912,-0.15549 -1.819518,-1.038578 -3.676902,-1.962419 -3.200053,-1.591672 -3.417586,-1.681999 -4.150247,-1.7234 -0.728417,-0.04115 -0.795883,-0.02374 -1.165158,0.300467 -0.215585,0.189286 -0.652035,0.768715 -0.969889,1.287626 -1.28541,2.098476 -2.372173,2.592429 -3.956532,1.798305 -0.66969,-0.335664 -2.823427,-1.901927 -4.528211,-3.293053 -5.713824,-4.662551 -11.471502,-12.803207 -13.675591,-19.335624 -0.377596,-1.11910703 -0.380253,-2.45520703 -0.0059,-2.980025 0.30896,-0.433172 0.955413,-0.779758 2.252321,-1.207545 1.545216,-0.509693 2.111539,-1.04908 2.247396,-2.140504 0.06293,-0.505572 -0.04998,-1.074798 -0.791831,-3.991818 -0.938018,-3.688373 -1.204865,-4.423303 -1.745965,-4.8086 -0.547632,-0.389948 -0.959895,-0.392774 -2.823868,-0.01937 -3.097176,0.620459 -4.062641,1.154535 -4.880728,2.699921 -0.568548,1.074 -0.736509,2.045431 -0.740488,4.282746 -0.0048,2.690219 0.344127,4.541155 1.507119,7.995082 2.456183,7.294525 7.065335,14.478564 13.062935,20.360505 5.173404,5.073635 10.257673,8.343127 15.580556,10.019229 2.813186,0.885835 3.648607,0.955327 4.89138,0.406875 z M -31.928111,18.453979 c 0.590656,-0.246794 1.385397,-1.042491 1.598457,-1.600381 0.388813,-1.01809 0.01631,-1.619301 -1.895674,-3.05958 -1.483275,-1.117337 -2.151748,-1.295107 -3.158442,-0.839943 -0.572601,0.258894 -1.186171,0.801114 -1.427244,1.261271 -0.351059,0.670103 -0.134756,1.292131 0.813824,2.340349 0.745024,0.823278 1.970453,1.817263 2.399636,1.946418 0.495113,0.149001 1.249703,0.127244 1.669443,-0.04813 z m -6.87809,-8.050041 c 0.68408,-0.344648 0.860903,-0.491613 1.004236,-0.834658 0.283266,-0.677951 0.145831,-1.24741 -0.60097,-2.490095 -1.184583,-1.971163 -1.868489,-2.510032 -3.013502,-2.374422 -0.63093,0.07472 -1.669773,0.620799 -2.014349,1.058855 -0.590688,0.750939 -0.500224,1.360796 0.440844,2.971934 0.821157,1.405848 1.479162,2.002636 2.389523,2.167217 0.503994,0.09112 0.770111,0.01714 1.794218,-0.498831 z"
       id="path1" /></g></svg>
